<svg preserveAspectRatio="none" overflow="visible" style="display: block;" width="13.5" height="20.5" viewBox="0 0 13.5 20.5" fill="none" xmlns="http://www.w3.org/2000/svg">
<path id="Icon" d="M0.75 8.52273V10.25C0.75 11.8534 1.38214 13.391 2.50736 14.5248C3.63258 15.6585 5.1587 16.2955 6.75 16.2955C8.3413 16.2955 9.86742 15.6585 10.9926 14.5248C12.1179 13.391 12.75 11.8534 12.75 10.25V8.52273M6.75 16.2955V19.75M3.32143 19.75H10.1786M6.75 0.75C6.06801 0.75 5.41396 1.02297 4.93172 1.50886C4.44949 1.99475 4.17857 2.65376 4.17857 3.34091V10.25C4.17857 10.9372 4.44949 11.5962 4.93172 12.082C5.41396 12.5679 6.06801 12.8409 6.75 12.8409C7.43199 12.8409 8.08604 12.5679 8.56827 12.082C9.05051 11.5962 9.32143 10.9372 9.32143 10.25V3.34091C9.32143 2.65376 9.05051 1.99475 8.56827 1.50886C8.08604 1.02297 7.43199 0.75 6.75 0.75Z" stroke="#BCBCBC" stroke-width="1.5" stroke-linecap="round" stroke-linejoin="round"/>
</svg>
